<?xml version="1.0" encoding="UTF-8" standalone="no"?>
<svg
   xmlns:dc="http://purl.org/dc/elements/1.1/"
   xmlns:cc="http://creativecommons.org/ns#"
   xmlns:rdf="http://www.w3.org/1999/02/22-rdf-syntax-ns#"
   xmlns:svg="http://www.w3.org/2000/svg"
   xmlns="http://www.w3.org/2000/svg"
   xmlns:sodipodi="http://sodipodi.sourceforge.net/DTD/sodipodi-0.dtd"
   xmlns:inkscape="http://www.inkscape.org/namespaces/inkscape"
   enable-background="new 0 0 300 300"
   version="1.1"
   viewBox="0 0 300 300"
   xml:space="preserve"
   id="svg12"
   sodipodi:docname="cart-white.svg"
   inkscape:version="0.92.4 (unknown)"><metadata
   id="metadata18"><rdf:RDF><cc:Work
       rdf:about=""><dc:format>image/svg+xml</dc:format><dc:type
         rdf:resource="http://purl.org/dc/dcmitype/StillImage" /><dc:title></dc:title></cc:Work></rdf:RDF></metadata><defs
   id="defs16" /><sodipodi:namedview
   pagecolor="#ffffff"
   bordercolor="#666666"
   borderopacity="1"
   objecttolerance="10"
   gridtolerance="10"
   guidetolerance="10"
   inkscape:pageopacity="0"
   inkscape:pageshadow="2"
   inkscape:window-width="1293"
   inkscape:window-height="713"
   id="namedview14"
   showgrid="false"
   inkscape:zoom="0.78666667"
   inkscape:cx="150"
   inkscape:cy="150"
   inkscape:window-x="67"
   inkscape:window-y="27"
   inkscape:window-maximized="1"
   inkscape:current-layer="svg12" />
<path
   d="m 95.6,200 h 184.7 c 10.1,0 19.7,-9.3 19.7,-19.1 V 75.3 c 0,-9.5 -8.5,-17.5 -18.5,-17.6 L 41.1,45.4 Z M 280.2,182 H 108.4 L 67,64.9 281,76 h 0.2 c 0.3,0 0.6,-0.2 0.8,-0.1 v 104.5 c -0.3,0.7 -1.3,1.4 -1.8,1.6 z"
   id="path2"
   inkscape:connector-curvature="0"
   style="fill:#ffffff" />
<rect
   x="-253.5"
   y="211"
   width="113.5"
   height="18"
   id="rect4"
   transform="scale(-1,1)"
   style="fill:#ffffff" />
<path
   d="m 252.8,294 c 22.9,0 41.6,-18.6 41.6,-41.6 0,-22.9 -18.6,-41.6 -41.6,-41.6 -23,0 -41.6,18.6 -41.6,41.6 0,23 18.7,41.6 41.6,41.6 z m 0,-65.1 c 13,0 23.6,10.6 23.6,23.6 0,13 -10.6,23.5 -23.6,23.5 -13,0 -23.6,-10.6 -23.6,-23.6 0,-13 10.6,-23.5 23.6,-23.5 z"
   id="path6"
   inkscape:connector-curvature="0"
   style="fill:#ffffff" />
<path
   d="m 138.7,294 c 22.9,0 41.6,-18.6 41.6,-41.6 0,-22.9 -18.6,-41.6 -41.6,-41.6 -22.9,0 -41.6,18.6 -41.6,41.6 0,23 18.7,41.6 41.6,41.6 z m 0,-65.1 c 13,0 23.6,10.6 23.6,23.6 0,13 -10.6,23.6 -23.6,23.6 -13,0 -23.6,-10.6 -23.6,-23.6 0,-13 10.6,-23.6 23.6,-23.6 z"
   id="path8"
   inkscape:connector-curvature="0"
   style="fill:#ffffff" />
<polygon
   points="238.1,54.5 258.2,6 300,6 300,24 270.2,24 254.7,61.4 "
   id="polygon10"
   transform="matrix(-1,0,0,1,302,0)"
   style="fill:#ffffff" />
</svg>